inDegrees=yes
name=ik_Xsens_quaternion
DataType=double
version=3
OpenSimVersion=4.4-2022-07-23-0e9fedc
endheader
time	pelvis_tilt	pelvis_list	pelvis_rotation	pelvis_tx	pelvis_ty	pelvis_tz	hip_flexion_r	hip_adduction_r	hip_rotation_r	knee_angle_r	knee_angle_r_beta	ankle_angle_r	subtalar_angle_r	mtp_angle_r	hip_flexion_l	hip_adduction_l	hip_rotation_l	knee_angle_l	knee_angle_l_beta	ankle_angle_l	subtalar_angle_l	mtp_angle_l	lumbar_extension	lumbar_bending	lumbar_rotation	arm_flex_r	arm_add_r	arm_rot_r	elbow_flex_r	pro_sup_r	wrist_flex_r	wrist_dev_r	arm_flex_l	arm_add_l	arm_rot_l	elbow_flex_l	pro_sup_l	wrist_flex_l	wrist_dev_l
28.35	0	0	0	0	0.93	0	0	0	0	0	7.526525916241208e-41	0	0	0	0	0	0	1.052357267868557e-38	1.063491364155131e-40	0	0	0	0	0	0	-0.005562426096276277	-0.0006735743361831977	-0.0003999772274548055	-0.003032232046831536	-0.0003731400312984062	0	0	151.0086499721271	-81.05971769963887	166.040722176918	-6.428605547986382	-0.0003326819068510367	0	0
28.36666666666667	-8.210210550802831e-30	6.045074198307191e-26	1.064639371636141e-29	2.781562099297125e-25	0.93	-1.616502894321889e-26	-4.310455369189608e-35	4.031113700646522e-24	-2.171838215163275e-36	0	-9.771330963830133e-18	3.384058482919148e-23	-2.833713718848048e-25	-2.588964380183686e-23	-2.289003098712813e-24	-1.955083095233265e-31	4.84589001075277e-25	0	-9.777533326878834e-18	-1.226446828063787e-25	1.804140060265022e-27	-3.459702525982615e-23	-6.424992355099263e-30	4.391505723587554e-28	7.148079053825948e-26	-0.005562426096276396	-0.0006735743361862451	-0.0003999772274570107	-0.003032232046830917	-0.0003731400312964367	5.76650374402465e-25	-2.999501451852828e-24	146.2756771046798	-81.87803482493283	160.6313940951615	-6.395897432091655	-0.0003326819068482605	-3.327945869290801e-25	-5.593449926750146e-26
28.38333333333333	0	0	0	0	0.93	0	0	0	0	0	4.623247360200462e-41	0	0	0	0	0	0	0	2.809382774622487e-41	0	0	0	0	0	0	-0.005562426096276396	-0.0006735743361862451	-0.0003999772274570107	-0.003032232046830917	-0.0003731400312964367	0	0	140.5507872945673	-82.68870416393075	154.2964061161171	-6.402271498603021	-0.0003326819068482605	0	0
28.4	-8.932871807584577e-26	-1.107310316966774e-24	5.057493356114943e-20	-5.582952146850091e-22	0.93	2.8262800091405e-23	6.415023551086751e-19	1.778728645201841e-20	6.892016828799215e-18	0	-3.167579523478335e-16	6.32930418254707e-17	3.102489961515682e-15	-3.568567950252021e-19	7.5840251425085e-17	9.515741365322227e-17	1.011222317931491e-15	0	-3.167489158127804e-16	-2.215910436055261e-18	1.430832903770668e-14	7.36800870828736e-19	-1.773631353701446e-16	-1.386278760864438e-16	-8.486539885351218e-16	-0.005562426016106417	-0.0006735743367293613	-0.000399977227465289	-0.003032232046831021	-0.000373140031296342	2.465760245625115e-18	7.640210345449403e-18	134.1067292758598	-83.47193153730507	147.3201519544628	-6.407858256688321	-0.0003326819068482848	-2.53700625453204e-18	1.936819908677668e-17
28.41666666666667	0	0	0	0	0.93	0	0	0	0	0	0	0	0	0	0	0	0	0	0	0	0	0	0	0	0	-0.005562426016105876	-0.0006735743367292801	-0.0003999772274652882	-0.003032232046830772	-0.000373140031296187	0	0	126.0287580068548	-84.14745903609209	138.7472403492902	-6.474089898567759	-0.0003326819068483494	0	0
28.43333333333333	0	0	0	0	0.93	0	0	0	0	0	0	0	0	0	0	0	0	0	0	0	0	0	0	0	0	-0.005562426016105876	-0.0006735743368483713	-0.0003999772277071224	-0.003032232046714615	-0.0003731400314533968	0	0	116.7490804246658	-84.67754187021532	128.9391810551969	-6.441425660933557	-0.0003326819068576963	0	0
28.45	1.359916279459037e-23	-2.157274535187109e-18	8.630776918983568e-25	-2.39444774556058e-23	0.93	1.065307905827414e-23	1.464183680567536e-34	-1.47239180085866e-23	7.411993748727871e-32	1.158638364227438e-16	2.025262634548605e-18	-3.512556254052949e-18	2.025574705354952e-17	-2.992331875895979e-16	3.364969842439347e-22	-1.554855337241726e-29	1.451802285706427e-19	2.85766326554571e-17	4.987260641846922e-19	-1.093031289263949e-23	6.749850019095102e-20	-3.799763502963288e-17	1.804605768483969e-23	5.295312814853195e-23	6.493526159200002e-24	-0.005562426016107507	-0.000673574336843573	-0.0003999772277033727	-0.00303223204672601	-0.0003731400314163996	-1.724116351087392e-17	-2.011115050614866e-16	106.3683609691557	-85.05536615566325	117.9283155611855	-6.291802447229094	-0.0003326819068448762	1.95500895504695e-18	3.197305923830144e-19
